<?xml version="1.0" encoding="UTF-8"?>
<svg width="16px" height="16px" viewBox="0 0 16 16" version="1.1" xmlns="http://www.w3.org/2000/svg" xmlns:xlink="http://www.w3.org/1999/xlink">
    <!-- Generator: Sketch 47.1 (45422) - http://www.bohemiancoding.com/sketch -->
    <title>Compass</title>
    <desc>Created with Sketch.</desc>
    <defs></defs>
    <g id="Single-Deal" stroke="none" stroke-width="1" fill="none" fill-rule="evenodd">
        <g id="Product-details" transform="translate(-521.000000, -356.000000)" fill="#FFFFFF">
            <g id="Directions" transform="translate(510.000000, 342.000000)">
                <g id="Group-4">
                    <path d="M19,28 C15.692,28 13,25.308 13,22 C13,18.692 15.692,16 19,16 C22.308,16 25,18.692 25,22 C25,25.308 22.308,28 19,28 M19,14 C23.418,14 27,17.582 27,22 C27,26.418 23.418,30 19,30 C14.582,30 11,26.418 11,22 C11,17.582 14.582,14 19,14 Z M19.4834,22.4834 L18.2744,22.7254 L18.5164,21.5164 L19.7254,21.2744 L19.4834,22.4834 Z M20.8034,19.0194 L17.4704,19.6864 C17.0744,19.7654 16.7654,20.0744 16.6864,20.4704 L16.0194,23.8034 C15.9544,24.1314 16.0564,24.4704 16.2934,24.7074 C16.4824,24.8964 16.7374,25.0004 17.0004,25.0004 C17.0654,25.0004 17.1304,24.9934 17.1964,24.9804 L20.5294,24.3144 C20.9254,24.2344 21.2344,23.9254 21.3144,23.5294 L21.9804,20.1964 C22.0464,19.8684 21.9434,19.5294 21.7074,19.2934 C21.4704,19.0564 21.1334,18.9524 20.8034,19.0194 Z" id="Compass"></path>
                </g>
            </g>
        </g>
    </g>
</svg>