<?xml version="1.0" encoding="UTF-8"?>
<svg width="16px" height="16px" viewBox="0 0 16 16" version="1.1" xmlns="http://www.w3.org/2000/svg" xmlns:xlink="http://www.w3.org/1999/xlink">
    <!-- Generator: Sketch 47 (45396) - http://www.bohemiancoding.com/sketch -->
    <title>Icon</title>
    <desc>Created with Sketch.</desc>
    <defs></defs>
    <g id="Symbols" stroke="none" stroke-width="1" fill="none" fill-rule="evenodd">
        <g id="Header" transform="translate(-950.000000, -42.000000)" fill="#3C3D48">
            <g id="Light-Header">
                <g id="Icons" transform="translate(950.000000, 42.000000)">
                    <path d="M12.0487296,13.4635517 L14.293,15.707 C14.488,15.902 14.744,16 15,16 C15.256,16 15.512,15.902 15.707,15.707 C16.098,15.316 16.098,14.684 15.707,14.293 L13.4635517,12.0487296 C14.4274425,10.7869789 15,9.21032759 15,7.5 C15,3.358 11.642,0 7.5,0 C3.358,0 0,3.358 0,7.5 C0,11.642 3.358,15 7.5,15 C9.21032759,15 10.7869789,14.4274425 12.0487296,13.4635517 L12.0487296,13.4635517 Z M7.5,2 C10.533,2 13,4.467 13,7.5 C13,10.533 10.533,13 7.5,13 C4.467,13 2,10.533 2,7.5 C2,4.467 4.467,2 7.5,2 L7.5,2 Z" id="Icon"></path>
                </g>
            </g>
        </g>
    </g>
</svg>