<?xml version="1.0" encoding="UTF-8"?>
<svg width="12px" height="16px" viewBox="0 0 12 16" version="1.1" xmlns="http://www.w3.org/2000/svg" xmlns:xlink="http://www.w3.org/1999/xlink">
    <!-- Generator: Sketch 47 (45396) - http://www.bohemiancoding.com/sketch -->
    <title>Icon</title>
    <desc>Created with Sketch.</desc>
    <defs></defs>
    <g id="Symbols" stroke="none" stroke-width="1" fill="none" fill-rule="evenodd">
        <g id="Header" transform="translate(-996.000000, -42.000000)" fill="#3C3D48">
            <g id="Light-Header">
                <g id="Log-in" transform="translate(996.000000, 42.000000)">
                    <path d="M5.9998,2 C4.8968,2 3.9998,3.122 3.9998,4.5 C3.9998,5.878 4.8968,7 5.9998,7 C7.1028,7 7.9998,5.878 7.9998,4.5 C7.9998,3.122 7.1028,2 5.9998,2 M5.9998,9 C3.7938,9 1.9998,6.981 1.9998,4.5 C1.9998,2.019 3.7938,0 5.9998,0 C8.2058,0 9.9998,2.019 9.9998,4.5 C9.9998,6.981 8.2058,9 5.9998,9 L5.9998,9 Z M9.18,16 L2.817,16 C1.263,16 0,14.654 0,13 C0,12.205 0.171,11.407 0.495,10.692 L0.998,9.586 C1.226,9.083 1.82,8.862 2.322,9.089 C2.825,9.318 3.047,9.911 2.819,10.414 L2.317,11.52 C2.109,11.976 2,12.488 2,13 C2,13.552 2.367,14 2.817,14 L9.18,14 C9.632,14 10,13.55 10,12.998 C10,12.487 9.89,11.977 9.684,11.522 L9.18,10.414 C8.952,9.911 9.175,9.318 9.678,9.089 C10.182,8.862 10.774,9.083 11.002,9.586 L11.505,10.695 C11.828,11.407 12,12.203 12,12.998 C12,14.653 10.735,16 9.18,16 L9.18,16 Z" id="Icon"></path>
                </g>
            </g>
        </g>
    </g>
</svg>