<?xml version="1.0" encoding="UTF-8"?>
<svg width="11px" height="9px" viewBox="0 0 11 9" version="1.1" xmlns="http://www.w3.org/2000/svg" xmlns:xlink="http://www.w3.org/1999/xlink">
    <!-- Generator: Sketch 47.1 (45422) - http://www.bohemiancoding.com/sketch -->
    <title>Icon</title>
    <desc>Created with Sketch.</desc>
    <defs></defs>
    <g id="Single-Deal" stroke="none" stroke-width="1" fill="none" fill-rule="evenodd">
        <g id="Twitter" transform="translate(-21.000000, -10.000000)" fill="#FFFFFF">
            <path d="M32,11.065 C31.595,11.245 31.161,11.368 30.704,11.423 C31.17,11.143 31.528,10.697 31.696,10.166 C31.26,10.426 30.777,10.616 30.263,10.717 C29.852,10.276 29.265,10 28.616,10 C27.37,10 26.359,11.017 26.359,12.272 C26.359,12.45 26.379,12.624 26.417,12.79 C24.542,12.695 22.879,11.79 21.766,10.416 C21.572,10.751 21.46,11.141 21.46,11.558 C21.46,12.346 21.859,13.042 22.464,13.449 C22.094,13.437 21.746,13.335 21.442,13.165 L21.442,13.193 C21.442,14.294 22.22,15.213 23.252,15.421 C23.063,15.474 22.863,15.501 22.658,15.501 C22.512,15.501 22.371,15.487 22.233,15.461 C22.52,16.363 23.354,17.02 24.341,17.038 C23.569,17.648 22.596,18.01 21.538,18.01 C21.356,18.01 21.177,18 21,17.979 C21.999,18.624 23.185,19 24.459,19 C28.611,19 30.88,15.538 30.88,12.536 C30.88,12.437 30.878,12.338 30.874,12.242 C31.315,11.921 31.697,11.521 32,11.065" id="Icon"></path>
        </g>
    </g>
</svg>