<?xml version="1.0" encoding="UTF-8" standalone="no"?>
<svg width="22px" height="28px" viewBox="0 0 22 28" version="1.1" xmlns="http://www.w3.org/2000/svg" xmlns:xlink="http://www.w3.org/1999/xlink">
    <!-- Generator: Sketch 47 (45396) - http://www.bohemiancoding.com/sketch -->
    <title>Pin</title>
    <desc>Created with Sketch.</desc>
    <defs></defs>
    <g id="Single-Deal" stroke="none" stroke-width="1" fill="none" fill-rule="evenodd">
        <path d="M10.5813441,0 C16.4151918,0 21.1626882,5.05964603 21.1626882,11.2779492 C21.1626882,14.3130314 18.9053348,19.2404107 14.4576431,25.924293 C13.5935,27.2240348 12.1438559,28 10.5813441,28 C9.01883227,28 7.56918813,27.2240348 6.70504503,25.924293 C2.25558985,19.2404107 0,14.3130314 0,11.2779492 C0,5.05964603 4.74573282,0 10.5813441,0 Z M11.5213201,23.9702715 C15.406437,18.1328966 17.6355735,13.5070857 17.6355735,11.2779492 C17.6355735,7.00484978 14.469988,3.52711469 10.5813441,3.52711469 C6.69093657,3.52711469 3.52711469,7.00484978 3.52711469,11.2779492 C3.52711469,13.5070857 5.75448762,18.1328966 9.64136802,23.9702715 C9.94117277,24.4235057 10.3979341,24.4728853 10.5813441,24.4728853 C10.7629905,24.4728853 11.2197518,24.4235057 11.5213201,23.9702715 Z M10.5809914,7.93636077 C12.0412169,7.93636077 13.2263274,9.12147131 13.2263274,10.5816968 C13.2263274,12.0419223 12.0412169,13.2270328 10.5809914,13.2270328 C9.12076589,13.2270328 7.93565535,12.0419223 7.93565535,10.5816968 C7.93565535,9.12147131 9.12076589,7.93636077 10.5809914,7.93636077 Z" id="Pin" fill="#3ABE84"></path>
    </g>
</svg>